<?xml version="1.0" encoding="UTF-8"?>
<svg width="26px" height="18px" viewBox="0 0 26 18" version="1.1" xmlns="http://www.w3.org/2000/svg" xmlns:xlink="http://www.w3.org/1999/xlink">
    <!-- Generator: Sketch 42 (36781) - http://www.bohemiancoding.com/sketch -->
    <title>Flag_Icon_ZH</title>
    <desc>Created with Sketch.</desc>
    <defs></defs>
    <g id="Page-1" stroke="none" stroke-width="1" fill="none" fill-rule="evenodd">
        <g id="Flag_Icon_ZH">
            <polygon id="Fill-1" fill="#D0011B" points="0 18 25.9588081 18 25.9588081 0 0 0"></polygon>
            <polygon id="Fill-41" fill="#FFCD02" points="5.00191939 6.31682139 6.85412668 7.6463872 6.14587332 5.48987318 8 4.15651402 5.71017274 4.15651402 5.00191939 2 4.29366603 4.15651402 2 4.15651402 3.85028791 5.48987318 3.14203455 7.6463872"></polygon>
            <polygon id="Fill-41-Copy" fill="#FFCD02" points="8.75047985 2.07920535 9.21353167 2.4115968 9.03646833 1.87246829 9.5 1.53912851 8.92754319 1.53912851 8.75047985 1 8.57341651 1.53912851 8 1.53912851 8.46257198 1.87246829 8.28550864 2.4115968"></polygon>
            <polygon id="Fill-41-Copy" fill="#FFCD02" points="10.7504798 4.07920535 11.2135317 4.4115968 11.0364683 3.87246829 11.5 3.53912851 10.9275432 3.53912851 10.7504798 3 10.5734165 3.53912851 10 3.53912851 10.462572 3.87246829 10.2855086 4.4115968"></polygon>
            <polygon id="Fill-41-Copy" fill="#FFCD02" points="10.7504798 7.07920535 11.2135317 7.4115968 11.0364683 6.87246829 11.5 6.53912851 10.9275432 6.53912851 10.7504798 6 10.5734165 6.53912851 10 6.53912851 10.462572 6.87246829 10.2855086 7.4115968"></polygon>
            <polygon id="Fill-41-Copy" fill="#FFCD02" points="8.75047985 9.07920535 9.21353167 9.4115968 9.03646833 8.87246829 9.5 8.53912851 8.92754319 8.53912851 8.75047985 8 8.57341651 8.53912851 8 8.53912851 8.46257198 8.87246829 8.28550864 9.4115968"></polygon>
        </g>
    </g>
</svg>