<?xml version="1.0" encoding="UTF-8"?>
<svg width="26px" height="18px" viewBox="0 0 26 18" version="1.1" xmlns="http://www.w3.org/2000/svg" xmlns:xlink="http://www.w3.org/1999/xlink">
    <!-- Generator: Sketch 42 (36781) - http://www.bohemiancoding.com/sketch -->
    <title>Flag_icon_EN</title>
    <desc>Created with Sketch.</desc>
    <defs></defs>
    <g id="Page-1" stroke="none" stroke-width="1" fill="none" fill-rule="evenodd">
        <g id="Flag_icon_EN">
            <polygon id="Fill-1" fill="#FEFEFE" points="0.0152616279 17.1932856 25.9740698 17.1932856 25.9740698 0.0151111713 0.0152616279 0.0151111713"></polygon>
            <polygon id="Fill-2" fill="#E30613" points="0.0152616279 1.36365502 25.9740698 1.36365502 25.9740698 0.0151111713 0.0152616279 0.0151111713"></polygon>
            <polygon id="Fill-3" fill="#E30613" points="0.0152616279 4.00222839 25.9740698 4.00222839 25.9740698 2.65338293 0.0152616279 2.65338293"></polygon>
            <polygon id="Fill-4" fill="#E30613" points="0.0152616279 6.64080177 25.9740698 6.64080177 25.9740698 5.29135306 0.0152616279 5.29135306"></polygon>
            <polygon id="Fill-5" fill="#E30613" points="0.0152616279 9.27937515 25.9740698 9.27937515 25.9740698 7.93022806 0.0152616279 7.93022806"></polygon>
            <polygon id="Fill-6" fill="#E30613" points="0.0152616279 11.9173453 25.9740698 11.9173453 25.9740698 10.5681982 0.0152616279 10.5681982"></polygon>
            <polygon id="Fill-7" fill="#E30613" points="0.0152616279 14.5559187 25.9740698 14.5559187 25.9740698 13.2067716 0.0152616279 13.2067716"></polygon>
            <polygon id="Fill-8" fill="#E30613" points="0.0152616279 17.1941904 25.9740698 17.1941904 25.9740698 15.8447417 0.0152616279 15.8447417"></polygon>
            <polygon id="Fill-9" fill="#30287B" points="0.0152616279 9.27786704 11.6974273 9.27786704 11.6974273 0.0148095511 0.0152616279 0.0148095511"></polygon>
            <polygon id="Fill-10" fill="#FEFEFE" points="0.975675872 1.13140747 1.27144622 1.34284322 1.15851017 1.00050431 1.45428052 0.788163705 1.08830669 0.788163705 0.975675872 0.445824795 0.862434593 0.788163705 0.498902616 0.788163705 0.793757267 1.00050431 0.680821221 1.34284322"></polygon>
            <polygon id="Fill-11" fill="#FEFEFE" points="2.92809593 1.13140747 3.22295058 1.34284322 3.110625 1.00050431 3.40517442 0.788163705 3.04072674 0.788163705 2.92809593 0.445824795 2.81485465 0.788163705 2.45071221 0.788163705 2.7449564 1.00050431 2.63324128 1.34284322"></polygon>
            <polygon id="Fill-12" fill="#FEFEFE" points="4.88021076 1.13140747 5.17506541 1.34284322 5.06304506 1.00050431 5.35759448 0.788163705 4.9940625 0.788163705 4.88021076 0.445824795 4.76727471 0.788163705 4.40313227 0.788163705 4.69737645 1.00050431 4.5853561 1.34284322"></polygon>
            <polygon id="Fill-13" fill="#FEFEFE" points="6.83232558 1.13140747 7.12748547 1.34284322 7.01546512 1.00050431 7.30909884 0.788163705 6.94556686 0.788163705 6.83232558 0.445824795 6.71969477 0.788163705 6.35494186 0.788163705 6.64979651 1.00050431 6.53655523 1.34284322"></polygon>
            <polygon id="Fill-14" fill="#FEFEFE" points="8.78386047 1.13140747 9.07963081 1.34284322 8.967 1.00050431 9.26215988 0.788163705 8.89740698 0.788163705 8.78386047 0.445824795 8.67122965 0.788163705 8.30708721 0.788163705 8.60224709 1.00050431 8.48992151 1.34284322"></polygon>
            <polygon id="Fill-15" fill="#FEFEFE" points="10.7362805 1.13140747 11.0317456 1.34284322 10.9191148 1.00050431 11.2136642 0.788163705 10.8489113 0.788163705 10.7362805 0.445824795 10.6233445 0.788163705 10.2582863 0.788163705 10.5534462 1.00050431 10.4414259 1.34284322"></polygon>
            <polygon id="Fill-16" fill="#FEFEFE" points="1.95159593 2.06395676 2.24736628 2.27509089 2.13473547 1.93214874 2.42928488 1.72041137 2.06422674 1.72041137 1.95159593 1.37777084 1.83896512 1.72041137 1.47421221 1.72041137 1.76967733 1.93214874 1.65704651 2.27509089"></polygon>
            <polygon id="Fill-17" fill="#FEFEFE" points="3.90401599 2.06395676 4.19917587 2.27509089 4.08715552 1.93214874 4.38139971 1.72041137 4.01786773 1.72041137 3.90401599 1.37777084 3.79138517 1.72041137 3.42663227 1.72041137 3.72209738 1.93214874 3.60946657 2.27509089"></polygon>
            <polygon id="Fill-18" fill="#FEFEFE" points="5.85643605 2.06395676 6.1512907 2.27509089 6.03957558 1.93214874 6.33381977 1.72041137 5.96906686 1.72041137 5.85643605 1.37777084 5.74380523 1.72041137 5.37905233 1.72041137 5.67329651 1.93214874 5.5606657 2.27509089"></polygon>
            <polygon id="Fill-19" fill="#FEFEFE" points="7.80882558 2.06395676 8.103375 2.27509089 7.99074419 1.93214874 8.28559884 1.72041137 7.9214564 1.72041137 7.80882558 1.37777084 7.69619477 1.72041137 7.33144186 1.72041137 7.62568605 1.93214874 7.51305523 2.27509089"></polygon>
            <polygon id="Fill-20" fill="#FEFEFE" points="9.76124564 2.06395676 10.0557951 2.27509089 9.94316424 1.93214874 10.2383241 1.72041137 9.87265552 1.72041137 9.76124564 1.37777084 9.64800436 1.72041137 9.28355669 1.72041137 9.57719041 1.93214874 9.46547529 2.27509089"></polygon>
            <polygon id="Fill-21" fill="#FEFEFE" points="0.975675872 2.99532973 1.27144622 3.20676548 1.15851017 2.86382333 1.45428052 2.65208596 1.08830669 2.65208596 0.975675872 2.30974705 0.862434593 2.65208596 0.498902616 2.65208596 0.793757267 2.86382333 0.680821221 3.20676548"></polygon>
            <polygon id="Fill-22" fill="#FEFEFE" points="2.92809593 2.99532973 3.22295058 3.20676548 3.110625 2.86382333 3.40517442 2.65208596 3.04072674 2.65208596 2.92809593 2.30974705 2.81485465 2.65208596 2.45071221 2.65208596 2.7449564 2.86382333 2.63324128 3.20676548"></polygon>
            <polygon id="Fill-23" fill="#FEFEFE" points="4.88021076 2.99532973 5.17506541 3.20676548 5.06304506 2.86382333 5.35759448 2.65208596 4.9940625 2.65208596 4.88021076 2.30974705 4.76727471 2.65208596 4.40313227 2.65208596 4.69737645 2.86382333 4.5853561 3.20676548"></polygon>
            <polygon id="Fill-24" fill="#FEFEFE" points="6.83232558 2.99532973 7.12748547 3.20676548 7.01546512 2.86382333 7.30909884 2.65208596 6.94556686 2.65208596 6.83232558 2.30974705 6.71969477 2.65208596 6.35494186 2.65208596 6.64979651 2.86382333 6.53655523 3.20676548"></polygon>
            <polygon id="Fill-25" fill="#FEFEFE" points="8.78386047 2.99532973 9.07963081 3.20676548 8.967 2.86382333 9.26215988 2.65208596 8.89740698 2.65208596 8.78386047 2.30974705 8.67122965 2.65208596 8.30708721 2.65208596 8.60224709 2.86382333 8.48992151 3.20676548"></polygon>
            <polygon id="Fill-26" fill="#FEFEFE" points="10.7362805 2.99532973 11.0317456 3.20676548 10.9191148 2.86382333 11.2136642 2.65208596 10.8489113 2.65208596 10.7362805 2.30974705 10.6233445 2.65208596 10.2582863 2.65208596 10.5534462 2.86382333 10.4414259 3.20676548"></polygon>
            <polygon id="Fill-27" fill="#FEFEFE" points="1.95159593 3.92700432 2.24736628 4.13874169 2.13473547 3.79549792 2.42928488 3.58376055 2.06422674 3.58376055 1.95159593 3.24112002 1.83896512 3.58376055 1.47421221 3.58376055 1.76967733 3.79549792 1.65704651 4.13874169"></polygon>
            <polygon id="Fill-28" fill="#FEFEFE" points="3.90401599 3.92700432 4.19917587 4.13874169 4.08715552 3.79549792 4.38139971 3.58376055 4.01786773 3.58376055 3.90401599 3.24112002 3.79138517 3.58376055 3.42663227 3.58376055 3.72209738 3.79549792 3.60946657 4.13874169"></polygon>
            <polygon id="Fill-29" fill="#FEFEFE" points="5.85643605 3.92700432 6.1512907 4.13874169 6.03957558 3.79549792 6.33381977 3.58376055 5.96906686 3.58376055 5.85643605 3.24112002 5.74380523 3.58376055 5.37905233 3.58376055 5.67329651 3.79549792 5.5606657 4.13874169"></polygon>
            <polygon id="Fill-30" fill="#FEFEFE" points="7.80882558 3.92700432 8.103375 4.13874169 7.99074419 3.79549792 8.28559884 3.58376055 7.9214564 3.58376055 7.80882558 3.24112002 7.69619477 3.58376055 7.33144186 3.58376055 7.62568605 3.79549792 7.51305523 4.13874169"></polygon>
            <polygon id="Fill-31" fill="#FEFEFE" points="9.76124564 3.92700432 10.0557951 4.13874169 9.94316424 3.79549792 10.2383241 3.58376055 9.87265552 3.58376055 9.76124564 3.24112002 9.64800436 3.58376055 9.28355669 3.58376055 9.57719041 3.79549792 9.46547529 4.13874169"></polygon>
            <polygon id="Fill-32" fill="#FEFEFE" points="0.975675872 4.85867891 1.27144622 5.07041628 1.15851017 4.72777575 1.45428052 4.51573676 1.08830669 4.51573676 0.975675872 4.17339785 0.862434593 4.51573676 0.498902616 4.51573676 0.793757267 4.72777575 0.680821221 5.07041628"></polygon>
            <polygon id="Fill-33" fill="#FEFEFE" points="2.92809593 4.85867891 3.22295058 5.07041628 3.110625 4.72777575 3.40517442 4.51573676 3.04072674 4.51573676 2.92809593 4.17339785 2.81485465 4.51573676 2.45071221 4.51573676 2.7449564 4.72777575 2.63324128 5.07041628"></polygon>
            <polygon id="Fill-34" fill="#FEFEFE" points="4.88021076 4.85867891 5.17506541 5.07041628 5.06304506 4.72777575 5.35759448 4.51573676 4.9940625 4.51573676 4.88021076 4.17339785 4.76727471 4.51573676 4.40313227 4.51573676 4.69737645 4.72777575 4.5853561 5.07041628"></polygon>
            <polygon id="Fill-35" fill="#FEFEFE" points="6.83232558 4.85867891 7.12748547 5.07041628 7.01546512 4.72777575 7.30909884 4.51573676 6.94556686 4.51573676 6.83232558 4.17339785 6.71969477 4.51573676 6.35494186 4.51573676 6.64979651 4.72777575 6.53655523 5.07041628"></polygon>
            <polygon id="Fill-36" fill="#FEFEFE" points="8.78386047 4.85867891 9.07963081 5.07041628 8.967 4.72777575 9.26215988 4.51573676 8.89740698 4.51573676 8.78386047 4.17339785 8.67122965 4.51573676 8.30708721 4.51573676 8.60224709 4.72777575 8.48992151 5.07041628"></polygon>
            <polygon id="Fill-37" fill="#FEFEFE" points="10.7362805 4.85867891 11.0317456 5.07041628 10.9191148 4.72777575 11.2136642 4.51573676 10.8489113 4.51573676 10.7362805 4.17339785 10.6233445 4.51573676 10.2582863 4.51573676 10.5534462 4.72777575 10.4414259 5.07041628"></polygon>
            <polygon id="Fill-38" fill="#FEFEFE" points="1.95159593 5.79092657 2.24736628 6.00236232 2.13473547 5.65942017 2.42928488 5.44738118 2.06422674 5.44738118 1.95159593 5.10443903 1.83896512 5.44738118 1.47421221 5.44738118 1.76967733 5.65942017 1.65704651 6.00236232"></polygon>
            <polygon id="Fill-39" fill="#FEFEFE" points="3.90401599 5.79092657 4.19917587 6.00236232 4.08715552 5.65942017 4.38139971 5.44738118 4.01786773 5.44738118 3.90401599 5.10443903 3.79138517 5.44738118 3.42663227 5.44738118 3.72209738 5.65942017 3.60946657 6.00236232"></polygon>
            <polygon id="Fill-40" fill="#FEFEFE" points="5.85643605 5.79092657 6.1512907 6.00236232 6.03957558 5.65942017 6.33381977 5.44738118 5.96906686 5.44738118 5.85643605 5.10443903 5.74380523 5.44738118 5.37905233 5.44738118 5.67329651 5.65942017 5.5606657 6.00236232"></polygon>
            <polygon id="Fill-41" fill="#FEFEFE" points="7.80882558 5.79092657 8.103375 6.00236232 7.99074419 5.65942017 8.28559884 5.44738118 7.9214564 5.44738118 7.80882558 5.10443903 7.69619477 5.44738118 7.33144186 5.44738118 7.62568605 5.65942017 7.51305523 6.00236232"></polygon>
            <polygon id="Fill-42" fill="#FEFEFE" points="9.76124564 5.79092657 10.0557951 6.00236232 9.94316424 5.65942017 10.2383241 5.44738118 9.87265552 5.44738118 9.76124564 5.10443903 9.64800436 5.44738118 9.28355669 5.44738118 9.57719041 5.65942017 9.46547529 6.00236232"></polygon>
            <polygon id="Fill-43" fill="#FEFEFE" points="0.975675872 6.722571 1.27144622 6.93400675 1.15851017 6.59166784 1.45428052 6.37902561 1.08830669 6.37902561 0.975675872 6.03638508 0.862434593 6.37902561 0.498902616 6.37902561 0.793757267 6.59166784 0.680821221 6.93400675"></polygon>
            <polygon id="Fill-44" fill="#FEFEFE" points="2.92809593 6.722571 3.22295058 6.93400675 3.110625 6.59166784 3.40517442 6.37902561 3.04072674 6.37902561 2.92809593 6.03638508 2.81485465 6.37902561 2.45071221 6.37902561 2.7449564 6.59166784 2.63324128 6.93400675"></polygon>
            <polygon id="Fill-45" fill="#FEFEFE" points="4.88021076 6.722571 5.17506541 6.93400675 5.06304506 6.59166784 5.35759448 6.37902561 4.9940625 6.37902561 4.88021076 6.03638508 4.76727471 6.37902561 4.40313227 6.37902561 4.69737645 6.59166784 4.5853561 6.93400675"></polygon>
            <polygon id="Fill-46" fill="#FEFEFE" points="6.83232558 6.722571 7.12748547 6.93400675 7.01546512 6.59166784 7.30909884 6.37902561 6.94556686 6.37902561 6.83232558 6.03638508 6.71969477 6.37902561 6.35494186 6.37902561 6.64979651 6.59166784 6.53655523 6.93400675"></polygon>
            <polygon id="Fill-47" fill="#FEFEFE" points="8.78386047 6.722571 9.07963081 6.93400675 8.967 6.59166784 9.26215988 6.37902561 8.89740698 6.37902561 8.78386047 6.03638508 8.67122965 6.37902561 8.30708721 6.37902561 8.60224709 6.59166784 8.48992151 6.93400675"></polygon>
            <polygon id="Fill-48" fill="#FEFEFE" points="10.7362805 6.722571 11.0317456 6.93400675 10.9191148 6.59166784 11.2136642 6.37902561 10.8489113 6.37902561 10.7362805 6.03638508 10.6233445 6.37902561 10.2582863 6.37902561 10.5534462 6.59166784 10.4414259 6.93400675"></polygon>
            <polygon id="Fill-49" fill="#FEFEFE" points="1.95159593 7.65454721 2.24736628 7.8665862 2.13473547 7.52364405 2.42928488 7.31100182 2.06422674 7.31100182 1.95159593 6.96836129 1.83896512 7.31100182 1.47421221 7.31100182 1.76967733 7.52364405 1.65704651 7.8665862"></polygon>
            <polygon id="Fill-50" fill="#FEFEFE" points="3.90401599 7.65454721 4.19917587 7.8665862 4.08715552 7.52364405 4.38139971 7.31100182 4.01786773 7.31100182 3.90401599 6.96836129 3.79138517 7.31100182 3.42663227 7.31100182 3.72209738 7.52364405 3.60946657 7.8665862"></polygon>
            <polygon id="Fill-51" fill="#FEFEFE" points="5.85643605 7.65454721 6.1512907 7.8665862 6.03957558 7.52364405 6.33381977 7.31100182 5.96906686 7.31100182 5.85643605 6.96836129 5.74380523 7.31100182 5.37905233 7.31100182 5.67329651 7.52364405 5.5606657 7.8665862"></polygon>
            <polygon id="Fill-52" fill="#FEFEFE" points="7.80882558 7.65454721 8.103375 7.8665862 7.99074419 7.52364405 8.28559884 7.31100182 7.9214564 7.31100182 7.80882558 6.96836129 7.69619477 7.31100182 7.33144186 7.31100182 7.62568605 7.52364405 7.51305523 7.8665862"></polygon>
            <polygon id="Fill-53" fill="#FEFEFE" points="9.76124564 7.65454721 10.0557951 7.8665862 9.94316424 7.52364405 10.2383241 7.31100182 9.87265552 7.31100182 9.76124564 6.96836129 9.64800436 7.31100182 9.28355669 7.31100182 9.57719041 7.52364405 9.46547529 7.8665862"></polygon>
            <polygon id="Fill-54" fill="#FEFEFE" points="0.975675872 8.5862218 1.27144622 8.79795917 1.15851017 8.45441378 1.45428052 8.24327965 1.08830669 8.24327965 0.975675872 7.90094074 0.862434593 8.24327965 0.498902616 8.24327965 0.793757267 8.45441378 0.680821221 8.79795917"></polygon>
            <polygon id="Fill-55" fill="#FEFEFE" points="2.92809593 8.5862218 3.22295058 8.79795917 3.110625 8.45441378 3.40517442 8.24327965 3.04072674 8.24327965 2.92809593 7.90094074 2.81485465 8.24327965 2.45071221 8.24327965 2.7449564 8.45441378 2.63324128 8.79795917"></polygon>
            <polygon id="Fill-56" fill="#FEFEFE" points="4.88021076 8.5862218 5.17506541 8.79795917 5.06304506 8.45441378 5.35759448 8.24327965 4.9940625 8.24327965 4.88021076 7.90094074 4.76727471 8.24327965 4.40313227 8.24327965 4.69737645 8.45441378 4.5853561 8.79795917"></polygon>
            <polygon id="Fill-57" fill="#FEFEFE" points="6.83232558 8.5862218 7.12748547 8.79795917 7.01546512 8.45441378 7.30909884 8.24327965 6.94556686 8.24327965 6.83232558 7.90094074 6.71969477 8.24327965 6.35494186 8.24327965 6.64979651 8.45441378 6.53655523 8.79795917"></polygon>
            <polygon id="Fill-58" fill="#FEFEFE" points="8.78386047 8.5862218 9.07963081 8.79795917 8.967 8.45441378 9.26215988 8.24327965 8.89740698 8.24327965 8.78386047 7.90094074 8.67122965 8.24327965 8.30708721 8.24327965 8.60224709 8.45441378 8.48992151 8.79795917"></polygon>
            <polygon id="Fill-59" fill="#FEFEFE" points="10.7362805 8.5862218 11.0317456 8.79795917 10.9191148 8.45441378 11.2136642 8.24327965 10.8489113 8.24327965 10.7362805 7.90094074 10.6233445 8.24327965 10.2582863 8.24327965 10.5534462 8.45441378 10.4414259 8.79795917"></polygon>
        </g>
    </g>
</svg>