<?xml version="1.0" encoding="utf-8"?>
<!-- Generator: Adobe Illustrator 20.1.0, SVG Export Plug-In . SVG Version: 6.00 Build 0)  -->
<svg version="1.1" id="Ebene_1" xmlns="http://www.w3.org/2000/svg" xmlns:xlink="http://www.w3.org/1999/xlink" x="0px" y="0px"
	 viewBox="0 0 103 39" style="enable-background:new 0 0 103 39;" xml:space="preserve">
<style type="text/css">
	.st0{fill:#0042AD;}
	.st1{fill:#FFFEFF;}
	.st2{fill:#FFFFFF;}
</style>
<path class="st0" d="M8,37.1h87c3.3,0,6-2.7,6-6v-23c0-3.3-2.7-6-6-6H8c-3.3,0-6,2.7-6,6v23C2,34.4,4.7,37.1,8,37.1z"/>
<g>
	<path id="path4911" class="st1" d="M21.7,14.9c0-1.6-1.1-2.3-2.7-2.3h-3v6.8h1.9v-2.2h1C20.5,17.3,21.7,16.7,21.7,14.9z M19.8,15
		c0,0.5-0.2,0.8-0.9,0.8h-1v-1.5h1C19.5,14.2,19.8,14.5,19.8,15L19.8,15z"/>
	<path id="path4913" class="st1" d="M28.4,19.5l-2.5-6.8H24l-2.5,6.8h2.1l0.3-1.2H26l0.4,1.2H28.4z M25.5,16.8h-1.1l0.1-0.4
		c0.2-0.9,0.4-1.2,0.5-1.7c0.1,0.5,0.2,0.8,0.4,1.7L25.5,16.8L25.5,16.8z"/>
	<path id="path4915" class="st1" d="M34.7,12.7h-2.2l-0.5,1c-0.4,0.7-0.7,1.4-0.8,1.8c-0.1-0.4-0.4-1.1-0.8-1.8l-0.5-1h-2.2l2.6,4.3
		v2.5h1.9V17L34.7,12.7"/>
	<path id="path4917" class="st1" d="M41.5,17.3c0-0.8-0.4-1.2-1-1.5c0.5-0.3,0.8-0.6,0.8-1.3c0-1.1-0.7-1.8-2.4-1.8h-3.3v6.8h3.3
		C40.6,19.5,41.5,18.7,41.5,17.3z M39.4,14.7c0,0.3-0.2,0.5-0.6,0.5h-1.4v-1.1h1.4C39.3,14.2,39.4,14.4,39.4,14.7z M39.6,17.3
		c0,0.4-0.2,0.7-0.7,0.7h-1.5v-1.3h1.5C39.4,16.7,39.6,16.9,39.6,17.3L39.6,17.3z"/>
	<path id="path4919" class="st1" d="M48.9,19.5l-2.5-6.8h-1.9l-2.5,6.8H44l0.3-1.2h2.1l0.4,1.2H48.9z M46,16.8h-1.1l0.1-0.4
		c0.3-0.9,0.4-1.2,0.5-1.7c0.1,0.5,0.2,0.8,0.4,1.7L46,16.8L46,16.8z"/>
	<path id="path4921" class="st1" d="M55.3,17.8L53.6,17c-0.4,0.6-0.6,1-1.2,1c-0.8,0-1.2-0.8-1.2-1.9c0-1.1,0.3-1.9,1.1-1.9
		c0.6,0,0.9,0.4,1.1,1l1.7-0.7c-0.5-1.3-1.1-2-2.8-2c-1.9,0-3.1,1.3-3.1,3.5c0,2,1.1,3.5,3.1,3.5C54,19.6,54.8,18.7,55.3,17.8"/>
	<path id="path4923" class="st1" d="M62.6,19.5l-2.3-4.4l2.1-2.4H60l-0.5,0.7c-0.5,0.6-1,1.3-1.3,1.8c0-0.5,0-1.1,0-1.7v-0.8h-1.9
		v6.8h1.9v-2.1l0.7-0.8l1.4,2.9H62.6"/>
	<path id="path6299" class="st1" d="M12.8,12.4c-1.1,0-2,0.9-2,2c0,1.1,0.9,2,2,2c1.1,0,2-0.9,2-2C14.8,13.3,13.9,12.4,12.8,12.4z
		 M12.8,12.8c0.8,0,1.6,0.7,1.6,1.6c0,0.9-0.7,1.6-1.6,1.6c-0.9,0-1.6-0.7-1.6-1.6C11.2,13.5,11.9,12.8,12.8,12.8z"/>
</g>
<g>
	<path id="path6297" class="st1" d="M71.2,7.3c-2.1,0-3.8,1.7-3.8,3.7c0,2.1,1.7,3.7,3.8,3.7c2.1,0,3.8-1.7,3.8-3.7
		C75,9,73.3,7.3,71.2,7.3z M71.2,7.7c1.9,0,3.4,1.5,3.4,3.3c0,1.8-1.5,3.3-3.4,3.3c-1.8,0-3.4-1.5-3.4-3.3
		C67.8,9.2,69.3,7.7,71.2,7.7z"/>
	<path id="path4925" class="st1" d="M79.8,7.3C77.7,7.3,76,9,76,11c0,2.1,1.7,3.7,3.8,3.7c2.1,0,3.8-1.7,3.8-3.7
		C83.6,9,81.9,7.3,79.8,7.3z M79.8,7.7c1.9,0,3.4,1.5,3.4,3.3c0,1.8-1.5,3.3-3.4,3.3c-1.8,0-3.4-1.5-3.4-3.3
		C76.4,9.2,77.9,7.7,79.8,7.7z"/>
	<path id="path6347" class="st1" d="M88.4,7.4c-2.1,0-3.7,1.6-3.7,3.7c0,2,1.7,3.7,3.7,3.7c2,0,3.7-1.6,3.7-3.7
		C92.1,9,90.5,7.4,88.4,7.4z"/>
	<path id="path6345" class="st1" d="M88.4,15.8c-2.1,0-3.7,1.6-3.7,3.7c0,2,1.7,3.7,3.7,3.7c2,0,3.7-1.6,3.7-3.7
		C92.1,17.5,90.5,15.8,88.4,15.8z"/>
	<path id="path4927" class="st1" d="M88.4,24.3c-2.1,0-3.7,1.7-3.7,3.7c0,2,1.7,3.7,3.7,3.7c2,0,3.7-1.6,3.7-3.7
		C92.1,26,90.5,24.3,88.4,24.3z"/>
	<path id="path4931" class="st1" d="M71.2,15.8c-2.1,0-3.8,1.7-3.8,3.7c0,2.1,1.7,3.7,3.8,3.7c2.1,0,3.8-1.7,3.8-3.7
		C75,17.4,73.3,15.8,71.2,15.8z M71.2,16.2c1.9,0,3.4,1.5,3.4,3.3c0,1.8-1.5,3.3-3.4,3.3c-1.8,0-3.4-1.5-3.4-3.3
		C67.8,17.7,69.3,16.2,71.2,16.2z"/>
	<path id="path4933" class="st1" d="M79.8,15.8c-2,0-3.7,1.6-3.7,3.7c0,2,1.7,3.7,3.7,3.7c2.1,0,3.8-1.6,3.8-3.7
		C83.5,17.5,81.8,15.8,79.8,15.8z"/>
	<path id="path6303" class="st1" d="M71.2,24.2c-2.1,0-3.8,1.7-3.8,3.7s1.7,3.7,3.8,3.7c2.1,0,3.8-1.7,3.8-3.7S73.3,24.2,71.2,24.2z
		 M71.2,24.7c1.9,0,3.4,1.5,3.4,3.3c0,1.8-1.5,3.3-3.4,3.3c-1.8,0-3.4-1.5-3.4-3.3C67.8,26.2,69.3,24.7,71.2,24.7z"/>
	<path id="path4941" class="st1" d="M79.8,24.2c-2.1,0-3.8,1.7-3.8,3.7c0,2.1,1.7,3.7,3.8,3.7c2.1,0,3.8-1.7,3.8-3.7
		S81.9,24.2,79.8,24.2z M79.8,24.7c1.9,0,3.4,1.5,3.4,3.3c0,1.8-1.5,3.3-3.4,3.3c-1.8,0-3.4-1.5-3.4-3.3
		C76.4,26.2,77.9,24.7,79.8,24.7z"/>
</g>
<path id="racetrack" class="st2" d="M95,39H8c-4.4,0-8-3.6-8-8V8c0-4.4,3.6-8,8-8h87c4.4,0,8,3.6,8,8v23C103,35.4,99.4,39,95,39z
	 M8,2C4.7,2,2,4.7,2,8v23c0,3.3,2.7,6,6,6h87c3.3,0,6-2.7,6-6V8c0-3.3-2.7-6-6-6H8z"/>
</svg>
