<?xml version="1.0" encoding="UTF-8" standalone="no"?>
<svg width="136px" height="36px" viewBox="0 0 136 36" version="1.1" xmlns="http://www.w3.org/2000/svg" xmlns:xlink="http://www.w3.org/1999/xlink" xmlns:sketch="http://www.bohemiancoding.com/sketch/ns">
    <!-- Generator: Sketch 3.2.2 (9983) - http://www.bohemiancoding.com/sketch -->
    <title> 259</title>
    <desc>Created with Sketch.</desc>
    <defs></defs>
    <g id="Page-1" stroke="none" stroke-width="1" fill="none" fill-rule="evenodd" sketch:type="MSPage">
        <g id="-259" sketch:type="MSArtboardGroup" fill="#FFFFFF">
            <path d="M7.91327025,35.7510102 C9.9177872,35.7510102 10.8672952,34.8046785 10.8672952,32.8594411 L10.8672952,22.2387953 L10.9727961,22.2387953 L17.1973488,32.9120151 C18.3578586,34.9105275 19.3601171,35.7510102 21.1536322,35.7510102 L27.4316386,35.7510102 C28.9614016,35.7510102 30.2274123,35.1733974 30.2274123,33.9634948 C30.2274123,33.4903289 30.0164105,32.9120151 29.5944069,32.2285533 L21.8921385,20.8725727 C26.8513837,19.0317823 29.014152,15.5093253 29.014152,11.3034066 C29.014152,4.20521775 24.793413,0 13.7158193,0 L2.90127453,0 C0.949508029,0 0,0.945630728 0,2.94414311 L0,32.8594411 C0,34.8046785 0.949508029,35.7510102 2.90127453,35.7510102 L7.91327025,35.7510102 L7.91327025,35.7510102 Z M10.8672952,15.6670473 L10.8672952,8.20154153 L13.1883149,8.20154153 C16.3005912,8.20154153 17.6193523,9.51519015 17.6193523,11.9342944 C17.6193523,14.3526977 16.3005912,15.6670473 13.1883149,15.6670473 L10.8672952,15.6670473 L10.8672952,15.6670473 Z M56.6560891,35.7510102 C58.6606061,35.7510102 59.6101141,34.8046785 59.6101141,32.8594411 L59.6101141,30.2833159 C59.6101141,28.2855045 58.6606061,27.3391728 56.6560891,27.3391728 L44.8392858,27.3391728 L44.8392858,21.9766264 L53.4910623,21.9766264 C55.4962826,21.9766264 56.4450873,21.0302947 56.4450873,19.0843563 L56.4450873,16.508231 C56.4450873,14.5104196 55.4962826,13.5640879 53.4910623,13.5640879 L44.8392858,13.5640879 L44.8392858,8.41113648 L55.0735757,8.41113648 C57.078796,8.41113648 58.0276007,7.46550575 58.0276007,5.52026834 L58.0276007,2.94414311 C58.0276007,0.945630728 57.078796,0 55.0735757,0 L36.6629667,0 C34.7112002,0 33.7616922,0.945630728 33.7616922,2.94414311 L33.7616922,32.8594411 C33.7616922,34.8046785 34.7112002,35.7510102 36.6629667,35.7510102 L56.6560891,35.7510102 L56.6560891,35.7510102 Z M89.7847759,2.83899514 C89.3627724,0.841183747 88.3605139,0 86.1449951,0 L81.6598006,0 C79.4456885,0 78.44343,0.841183747 78.0207231,2.83899514 L74.4329894,20.3987059 L74.3281919,20.3987059 L71.4269173,2.83899514 C71.1104147,0.841183747 70.1081562,0 67.7871366,0 L63.4608967,0 C61.6673815,0 60.6658263,0.787908776 60.6658263,2.36582929 C60.6658263,2.68057221 60.7178735,3.10116408 60.8233743,3.52175595 L67.7336828,32.8594411 C68.2091401,34.8046785 69.1586482,35.7510102 71.6379191,35.7510102 L75.9634557,35.7510102 C78.1789744,35.7510102 79.1812329,34.9105275 79.6025332,32.9120151 L83.5602233,13.7218099 L83.6657242,13.7218099 L87.6220076,32.9120151 C88.0440112,34.9105275 89.0462697,35.7510102 91.2617884,35.7510102 L95.587325,35.7510102 C98.0672993,35.7510102 99.0168073,34.8046785 99.4915613,32.8594411 L106.40187,3.52175595 C106.508074,3.10116408 106.559418,2.68057221 106.559418,2.36582929 C106.559418,0.787908776 105.504409,0 103.764347,0 L100.071816,0 C97.7500933,0 96.7485381,0.841183747 96.4320355,2.83899514 L93.5300576,20.3987059 L93.4245567,20.3987059 L89.7847759,2.83899514 L89.7847759,2.83899514 Z M132.09204,35.7510102 C134.097261,35.7510102 135.045362,34.8046785 135.045362,32.8594411 L135.045362,30.2833159 C135.045362,28.2855045 134.097261,27.3391728 132.09204,27.3391728 L120.27594,27.3391728 L120.27594,21.9766264 L128.927014,21.9766264 C130.931531,21.9766264 131.880335,21.0302947 131.880335,19.0843563 L131.880335,16.508231 C131.880335,14.5104196 130.931531,13.5640879 128.927014,13.5640879 L120.27594,13.5640879 L120.27594,8.41113648 L130.509527,8.41113648 C132.514044,8.41113648 133.463552,7.46550575 133.463552,5.52026834 L133.463552,2.94414311 C133.463552,0.945630728 132.514044,0 130.509527,0 L112.098918,0 C110.147151,0 109.197643,0.945630728 109.197643,2.94414311 L109.197643,32.8594411 C109.197643,34.8046785 110.147151,35.7510102 112.098918,35.7510102 L132.09204,35.7510102 L132.09204,35.7510102 Z" id="Fill-1" sketch:type="MSShapeGroup"></path>
        </g>
    </g>
</svg>